<svg xmlns="http://www.w3.org/2000/svg" xmlns:xlink="http://www.w3.org/1999/xlink" width="708" height="458" viewBox="0 0 708 458">
  <defs>
    <clipPath id="clip-path">
      <rect id="Rectangle_914" data-name="Rectangle 914" width="708" height="458" transform="translate(15 1993)" fill="#ffb511"/>
    </clipPath>
    <clipPath id="clip-path-2">
      <rect id="Rectangle_899" data-name="Rectangle 899" width="906" height="734" rx="10" transform="translate(265.48 94.339)" fill="#fff"/>
    </clipPath>
    <clipPath id="clip-path-3">
      <rect id="Rectangle_898" data-name="Rectangle 898" width="634.781" height="992.699" fill="none"/>
    </clipPath>
    <clipPath id="clip-path-4">
      <rect id="Rectangle_893" data-name="Rectangle 893" width="132.063" height="182.178" fill="none"/>
    </clipPath>
    <clipPath id="clip-path-5">
      <rect id="Rectangle_894" data-name="Rectangle 894" width="131.177" height="468.489" fill="none"/>
    </clipPath>
    <clipPath id="clip-path-6">
      <rect id="Rectangle_895" data-name="Rectangle 895" width="118.746" height="293.952" fill="none"/>
    </clipPath>
    <clipPath id="clip-path-7">
      <rect id="Rectangle_896" data-name="Rectangle 896" width="120.103" height="508.523" fill="none"/>
    </clipPath>
    <clipPath id="clip-path-8">
      <rect id="Rectangle_897" data-name="Rectangle 897" width="119.81" height="294.886" fill="none"/>
    </clipPath>
  </defs>
  <g id="Groupe_de_masques_6" data-name="Groupe de masques 6" transform="translate(-15 -1993)" clip-path="url(#clip-path)">
    <g id="Groupe_de_masques_5" data-name="Groupe de masques 5" transform="translate(-220.48 1802.661)" clip-path="url(#clip-path-2)">
      <g id="Groupe_392" data-name="Groupe 392" transform="translate(281.747 190.231)">
        <path id="Tracé_312" data-name="Tracé 312" d="M1410.573,1102.879,1389,1048l22.914.37,19.218,54.7Z" transform="translate(-875.65 -660.678)" fill="#f4f4f4"/>
        <g id="Groupe_391" data-name="Groupe 391">
          <g id="Groupe_390" data-name="Groupe 390" clip-path="url(#clip-path-3)">
            <g id="Groupe_377" data-name="Groupe 377" transform="translate(188.487 14.44)" style="isolation: isolate">
              <g id="Groupe_376" data-name="Groupe 376">
                <g id="Groupe_375" data-name="Groupe 375" clip-path="url(#clip-path-4)">
                  <path id="Tracé_313" data-name="Tracé 313" d="M510,221.25V77.322a38.25,38.25,0,0,1,38.25-38.25H591.9a35.145,35.145,0,0,1,35.145,35.145V87.461l14.521,41.273a8.693,8.693,0,0,1-8.2,11.578H619.4v13.981a3.759,3.759,0,0,1-3.76,3.759H588.061a.853.853,0,0,0-.557,1.5l19.7,16.98a12.2,12.2,0,0,1-12.2,12.2H581.7V221.25Z" transform="translate(-510 -39.071)" fill="#11183f"/>
                </g>
              </g>
            </g>
            <path id="Tracé_314" data-name="Tracé 314" d="M492.305,52.858,482,12.935,615.419,0V42.718L632.74,47.63a1.816,1.816,0,0,1-.322,3.555L588.07,55.437Z" transform="translate(-303.861)" fill="#11183f"/>
            <path id="Tracé_315" data-name="Tracé 315" d="M624.593,505.2H503V476h53.59c26.943,0,48.785,2.254,48.785,29.2Z" transform="translate(-317.1 -300.079)" fill="#f4f4f4"/>
            <g id="Groupe_380" data-name="Groupe 380" transform="translate(193.492 204.762)" style="isolation: isolate">
              <g id="Groupe_379" data-name="Groupe 379" transform="translate(0 0)">
                <g id="Groupe_378" data-name="Groupe 378" transform="translate(0)" clip-path="url(#clip-path-5)">
                  <path id="Tracé_316" data-name="Tracé 316" d="M653.832,968.563l-4.8-247.99L653.832,555H523l17,386.953,4.8,81.678" transform="translate(-523.2 -554.644)" fill="#11183f"/>
                </g>
              </g>
            </g>
            <g id="Groupe_383" data-name="Groupe 383" transform="translate(215.033 611.104)" style="isolation: isolate">
              <g id="Groupe_382" data-name="Groupe 382">
                <g id="Groupe_381" data-name="Groupe 381" clip-path="url(#clip-path-6)">
                  <path id="Tracé_317" data-name="Tracé 317" d="M581.825,1729.182l9.989,238.88,108.758-4.548-9.747-289.4" transform="translate(-581.825 -1674.111)" fill="#11183f"/>
                </g>
              </g>
            </g>
            <path id="Tracé_318" data-name="Tracé 318" d="M608,2483v35.479h43.191v-10.87l44.115,10.87h77.879s2.551-30.847-51.882-29.689-107.09,0-107.09,0Z" transform="translate(-383.294 -1565.326)" fill="#11183f"/>
            <g id="Groupe_386" data-name="Groupe 386" transform="translate(137.274 204.762)" style="isolation: isolate">
              <g id="Groupe_385" data-name="Groupe 385" transform="translate(0 0)">
                <g id="Groupe_384" data-name="Groupe 384" clip-path="url(#clip-path-7)">
                  <path id="Tracé_319" data-name="Tracé 319" d="M492.375,1008.109l-4.8-247.99L470.2,555H373l5.544,426.5,4.8,81.678" transform="translate(-372.419 -554.644)" fill="#11183f"/>
                </g>
              </g>
            </g>
            <g id="Groupe_389" data-name="Groupe 389" transform="translate(148.138 658.268)" style="isolation: isolate">
              <g id="Groupe_388" data-name="Groupe 388">
                <g id="Groupe_387" data-name="Groupe 387" clip-path="url(#clip-path-8)">
                  <path id="Tracé_320" data-name="Tracé 320" d="M400.825,1836.183l9.989,238.88,109.821.934-10.811-294.886" transform="translate(-400.825 -1781.111)" fill="#11183f"/>
                </g>
              </g>
            </g>
            <path id="Tracé_321" data-name="Tracé 321" d="M427,2590v35.48h43.191v-10.87l44.115,10.87h77.879s2.551-30.847-51.882-29.689-107.09,0-107.09,0Z" transform="translate(-269.188 -1632.781)" fill="#11183f"/>
            <path id="Tracé_322" data-name="Tracé 322" d="M794.783,555.1l74.374,135.23,34.233,57.537-67.126,46.316L747.308,676.1Z" transform="translate(-471.116 -349.945)" fill="#11183f"/>
            <path id="Tracé_323" data-name="Tracé 323" d="M137.207,553.21,43.981,671.4,0,724.249,65.047,768.23l94.416-86.961Z" transform="translate(0 -348.753)" fill="#11183f"/>
            <path id="Tracé_324" data-name="Tracé 324" d="M81.308,926.348l51.742,34.371,61.72,39.545L182.2,1077.071,0,953.7l77.113-36.525Z" transform="translate(0 -578.201)" fill="#11183f"/>
            <path id="Tracé_325" data-name="Tracé 325" d="M1135.094,1033.435l28.458,60.981L988,1092.938,1030.5,1029Z" transform="translate(-622.852 -648.699)" fill="#11183f"/>
            <path id="Tracé_326" data-name="Tracé 326" d="M1431.3,1048.42l57.037.231-.042,10.375-17.492-.071-.032,8.1,60.241.244-.039,8.755-29.935-.121-.013,5.514,33.632.136-.035,8.516-30.245-.123-.018,5.271,32.739.133-.043,8.162-79.366-.321Z" transform="translate(-902.317 -660.942)" fill="#11183f"/>
          </g>
        </g>
      </g>
    </g>
  </g>
</svg>
