<svg xmlns="http://www.w3.org/2000/svg" width="1065.85" height="494.202" viewBox="0 0 1065.85 494.202">
  <g id="Groupe_445" data-name="Groupe 445" transform="translate(-300.15 -121)">
    <g id="Groupe_421" data-name="Groupe 421" transform="translate(1904 -166.294) rotate(90)">
      <path id="Soustraction_109" data-name="Soustraction 109" d="M-5876.288,13361.349h-103.371a70.524,70.524,0,0,1-22.769-3.749,70.329,70.329,0,0,1-19.684-10.432,70.592,70.592,0,0,1-13.99-13.99,70.236,70.236,0,0,1-10.432-19.684,70.489,70.489,0,0,1-3.749-22.769l.1-147.107c0-.7-.018-1.417-.052-2.119h28.192c.021.732.031,1.445.031,2.119l-.1,147.107a42.5,42.5,0,0,0,42.452,42.452h103.371v28.17Z" transform="translate(6381.289 -12469.346)" fill="#e74536" stroke="rgba(0,0,0,0)" stroke-miterlimit="10" stroke-width="1"/>
      <rect id="Rectangle_854" data-name="Rectangle 854" width="28" height="185" transform="translate(330.786 538)" fill="#e74536"/>
    </g>
    <g id="Groupe_422" data-name="Groupe 422" transform="translate(148 756.6) rotate(-90)">
      <path id="Soustraction_109-2" data-name="Soustraction 109" d="M-5876.288,13361.349h-103.371a70.524,70.524,0,0,1-22.769-3.749,70.329,70.329,0,0,1-19.684-10.432,70.592,70.592,0,0,1-13.99-13.99,70.236,70.236,0,0,1-10.432-19.684,70.489,70.489,0,0,1-3.749-22.769l.1-147.107c0-.7-.018-1.417-.052-2.119h28.192c.021.732.031,1.445.031,2.119l-.1,147.107a42.5,42.5,0,0,0,42.452,42.452h103.371v28.17Z" transform="translate(6381.289 -12469.346)" fill="#e74536" stroke="rgba(0,0,0,0)" stroke-miterlimit="10" stroke-width="1"/>
      <rect id="Rectangle_854-2" data-name="Rectangle 854" width="28" height="426" transform="translate(330.786 297)" fill="#e74536"/>
    </g>
    <path id="Soustraction_123" data-name="Soustraction 123" d="M-5876.288,13361.349h-103.371a70.524,70.524,0,0,1-22.769-3.749,70.329,70.329,0,0,1-19.684-10.432,70.592,70.592,0,0,1-13.99-13.99,70.236,70.236,0,0,1-10.432-19.684,70.489,70.489,0,0,1-3.749-22.769l.1-147.107c0-.7-.018-1.417-.052-2.119h28.192c.021.732.031,1.445.031,2.119l-.1,147.107a42.5,42.5,0,0,0,42.452,42.452l103.371.077v28.093Z" transform="translate(13661.999 6448.211) rotate(90)" fill="#e74536" stroke="rgba(0,0,0,0)" stroke-miterlimit="10" stroke-width="1"/>
    <rect id="Rectangle_918" data-name="Rectangle 918" width="28" height="135.779" transform="translate(328.65 615.202) rotate(180)" fill="#e74536"/>
    <g id="Groupe_264" data-name="Groupe 264" transform="translate(358 32)">
      <g id="Rectangle_833" data-name="Rectangle 833" transform="translate(549 89)" fill="none" stroke="#ffb511" stroke-width="24">
        <rect width="180" height="409" rx="90" stroke="none"/>
        <rect x="12" y="12" width="156" height="385" rx="78" fill="none"/>
      </g>
      <g id="Rectangle_834" data-name="Rectangle 834" transform="translate(599 89)" fill="none" stroke="#fff" stroke-width="24">
        <rect width="180" height="409" rx="90" stroke="none"/>
        <rect x="12" y="12" width="156" height="385" rx="78" fill="none"/>
      </g>
    </g>
  </g>
</svg>
